<svg xmlns="http://www.w3.org/2000/svg" viewBox="0 0 39.75 39.75"><defs><style>.cls-1{fill:#46a13a;}.cls-2{fill:#fff;}</style></defs><title>icon-social-whatsapp</title><g id="Layer_2" data-name="Layer 2"><g id="Слой_1" data-name="Слой 1"><circle class="cls-1" cx="19.88" cy="19.88" r="19.88"/><path class="cls-2" d="M30.63,8.69a13.36,13.36,0,0,0-21,16.12l-1.9,6.92,7.08-1.86a13.34,13.34,0,0,0,6.38,1.63h0A13.37,13.37,0,0,0,30.63,8.69ZM21.18,29.24h0a11.09,11.09,0,0,1-5.65-1.55l-.41-.24-4.2,1.1L12,24.46,11.77,24a11.11,11.11,0,1,1,9.41,5.2Zm6.09-8.32c-.33-.17-2-1-2.28-1.09s-.53-.17-.75.17-.86,1.09-1.06,1.31-.39.25-.73.08a9.13,9.13,0,0,1-2.68-1.66,10.09,10.09,0,0,1-1.86-2.31c-.19-.34,0-.5.15-.68a9.33,9.33,0,0,0,.83-1.14.61.61,0,0,0,0-.58c-.08-.17-.75-1.81-1-2.48s-.55-.56-.75-.57h-.64a1.22,1.22,0,0,0-.89.42,3.75,3.75,0,0,0-1.17,2.79,6.5,6.5,0,0,0,1.36,3.45,14.89,14.89,0,0,0,5.7,5,19.13,19.13,0,0,0,1.9.7,4.58,4.58,0,0,0,2.1.13,3.44,3.44,0,0,0,2.25-1.59,2.78,2.78,0,0,0,.19-1.59C27.83,21.18,27.6,21.09,27.27,20.93Z"/></g></g></svg>