<?xml version="1.0" encoding="utf-8"?>
<!-- Generator: Adobe Illustrator 15.1.0, SVG Export Plug-In . SVG Version: 6.00 Build 0)  -->
<!DOCTYPE svg PUBLIC "-//W3C//DTD SVG 1.1//EN" "http://www.w3.org/Graphics/SVG/1.1/DTD/svg11.dtd">
<svg version="1.1" id="Слой_1" xmlns="http://www.w3.org/2000/svg" xmlns:xlink="http://www.w3.org/1999/xlink" x="0px" y="0px"
	 width="120.967px" height="121.555px" viewBox="0 0 120.967 121.555" enable-background="new 0 0 120.967 121.555"
	 xml:space="preserve">
<g>
	<linearGradient id="SVGID_1_" gradientUnits="userSpaceOnUse" x1="16.9375" y1="36.4775" x2="118.5838" y2="133.3961">
		<stop  offset="0" style="stop-color:#53CE60"/>
		<stop  offset="1" style="stop-color:#22B13A"/>
	</linearGradient>
	<path fill="url(#SVGID_1_)" d="M103.344,17.663C91.974,6.28,76.849,0.004,60.74,0C27.543,0,0.514,27.017,0.506,60.232
		C0.501,70.845,3.271,81.211,8.547,90.34L0,121.555l31.929-8.371c8.798,4.805,18.708,7.338,28.781,7.338h0.026
		c33.204,0,60.221-27.027,60.23-60.24C120.984,44.185,114.725,29.051,103.344,17.663z"/>
	<path fill="#FFFFFF" d="M88.206,72.846c-1.505-0.757-8.911-4.399-10.291-4.904c-1.381-0.497-2.383-0.746-3.384,0.759
		c-1.007,1.506-3.889,4.895-4.766,5.902c-0.886,1.005-1.759,1.129-3.264,0.371c-1.5-0.752-6.353-2.34-12.103-7.469
		c-4.477-3.987-7.497-8.919-8.378-10.422c-0.879-1.508-0.004-2.246,0.663-3.07c1.632-2.022,3.257-4.145,3.763-5.148
		c0.501-1.007,0.252-1.881-0.127-2.637c-0.373-0.756-3.38-8.166-4.638-11.177c-1.222-2.936-2.458-2.539-3.386-2.585
		c-0.878-0.042-1.882-0.052-2.883-0.052c-1.002,0-2.635,0.374-4.016,1.879c-1.379,1.512-5.26,5.152-5.26,12.56
		s5.395,14.565,6.145,15.571c0.752,1.005,10.613,16.205,25.709,22.725c3.591,1.549,6.398,2.482,8.581,3.174
		c3.606,1.146,6.89,0.982,9.479,0.598c2.891-0.439,8.906-3.646,10.157-7.164c1.256-3.519,1.256-6.526,0.878-7.153
		C90.712,73.973,89.706,73.595,88.206,72.846z"/>
</g>
</svg>
