<svg id="Layer_1" data-name="Layer 1" xmlns="http://www.w3.org/2000/svg" viewBox="0 0 48 48"><defs><style>.cls-1{fill:#634ead;}.cls-2{fill:#dcb18f;}</style></defs><title>favicon</title><g id="Layer_2" data-name="Layer 2"><g id="Слой_1" data-name="Слой 1"><path class="cls-1" d="M40.85,27.85,39.2,29.54a11,11,0,0,1,2.14,2.9l2.14-.94A13.27,13.27,0,0,0,40.85,27.85Z"/><path class="cls-1" d="M5.75,32.81H8.43a17.17,17.17,0,0,1,1.43-1.94L8.19,29.19A17.54,17.54,0,0,0,5.75,32.81Z"/><path class="cls-2" d="M9.87,30.87,22,43l5-5L15.41,26.47A18.2,18.2,0,0,0,9.87,30.87Z"/><path class="cls-2" d="M13.67,24.72l-1-1,14-14L22,5,3,24l5.19,5.19A20.3,20.3,0,0,1,13.67,24.72Z"/><path class="cls-1" d="M15.41,26.47l-1.75-1.75a20.3,20.3,0,0,0-5.47,4.47l1.67,1.67A18.2,18.2,0,0,1,15.41,26.47Z"/><path class="cls-1" d="M28.82,7.53,26.67,9.68l-14,14,1,1A22.43,22.43,0,0,1,25,22c6.56.07,11,2,13.81,4.13a17.21,17.21,0,0,1,2,1.72L45,23.7Z"/><path class="cls-1" d="M37.18,27.81C34.66,26,30.78,24.4,25,24.34a20.19,20.19,0,0,0-9.61,2.14L27,38l1.86,1.85L39.2,29.54A15,15,0,0,0,37.18,27.81Z"/><path class="cls-2" d="M38.86,26.13C36,24,31.61,22.06,25,22a22.43,22.43,0,0,0-11.38,2.72l1.75,1.75A20.19,20.19,0,0,1,25,24.33c5.77.06,9.64,1.69,12.16,3.47a15,15,0,0,1,2,1.74l1.65-1.65A17.21,17.21,0,0,0,38.86,26.13Z"/><circle class="cls-2" cx="29.34" cy="29.72" r="4.15"/></g></g></svg>