<svg id="Layer_1" data-name="Layer 1" xmlns="http://www.w3.org/2000/svg" viewBox="0 0 180 162.82"><defs><style>.cls-1{fill:#634ead;}.cls-2{fill:#dcb18f;}</style></defs><title>mask-icon</title><path class="cls-1" d="M162.23,106.51l-7.07,7.06A47.16,47.16,0,0,1,164.36,126l9.17-4C173.24,121.31,170.07,114.42,162.23,106.51Z" transform="translate(0 -8.59)"/><path class="cls-1" d="M11.79,127.75h11.5a73.57,73.57,0,0,1,6.14-8.32l-7.16-7.17A75.16,75.16,0,0,0,11.79,127.75Z" transform="translate(0 -8.59)"/><path class="cls-2" d="M29.43,119.43l52,52,21.31-21.31L53.19,100.58A78.1,78.1,0,0,0,29.43,119.43Z" transform="translate(0 -8.59)"/><path class="cls-2" d="M45.71,93.09l-4.36-4.37,60.1-60.09-20-20L0,90l22.27,22.26A87,87,0,0,1,45.71,93.09Z" transform="translate(0 -8.59)"/><path class="cls-1" d="M53.19,100.58l-7.48-7.49a87,87,0,0,0-23.44,19.17l7.16,7.17A78.1,78.1,0,0,1,53.19,100.58Z" transform="translate(0 -8.59)"/><path class="cls-1" d="M110.67,19.41l-9.22,9.22L41.35,88.72l4.36,4.37C58,86.25,74,81.2,94.47,81.41c28.13.3,47,8.66,59.21,17.72a73.73,73.73,0,0,1,8.54,7.37L180,88.72Z" transform="translate(0 -8.59)"/><path class="cls-1" d="M146.52,106.3c-10.82-7.62-27.43-14.6-52.15-14.87-17-.2-30.57,3.7-41.17,9.15l49.52,49.52,8,8,44.48-44.48A64.25,64.25,0,0,0,146.52,106.3Z" transform="translate(0 -8.59)"/><path class="cls-2" d="M153.68,99.14c-12.23-9.06-31.08-17.42-59.21-17.72C74,81.2,58,86.25,45.71,93.09l7.48,7.49c10.61-5.44,24.16-9.35,41.17-9.15,24.72.27,41.33,7.25,52.15,14.87a64.25,64.25,0,0,1,8.64,7.27l7.07-7.06A73.73,73.73,0,0,0,153.68,99.14Z" transform="translate(0 -8.59)"/><circle class="cls-2" cx="112.9" cy="105.9" r="17.81"/></svg>