<svg width="0" height="0" class="hidden">
    <symbol xmlns="http://www.w3.org/2000/svg" xmlns:xlink="http://www.w3.org/1999/xlink" viewBox="0 0 1024 1024" id="icon-bars">
        <path d="M964.293 268.203h-904.586c-32.959 0-59.707-26.748-59.707-59.707s26.748-59.707 59.707-59.707h904.586c32.959 0 59.707 26.748 59.707 59.707s-26.748 59.707-59.707 59.707z"></path>
        <path d="M964.293 571.707h-904.586c-32.959 0-59.707-26.748-59.707-59.707s26.748-59.707 59.707-59.707h904.586c32.959 0 59.707 26.748 59.707 59.707s-26.748 59.707-59.707 59.707z"></path>
        <path d="M964.293 875.21h-904.586c-32.959 0-59.707-26.748-59.707-59.707s26.748-59.707 59.707-59.707h904.586c32.959 0 59.707 26.748 59.707 59.707s-26.748 59.707-59.707 59.707z"></path>
    </symbol>

    <symbol xmlns="http://www.w3.org/2000/svg" xmlns:xlink="http://www.w3.org/1999/xlink" viewBox="0 0 1024 1024" id="icon-angle-left">
        <path d="M711.303 0c20.426 0 40.906 7.707 56.643 23.175 31.852 31.259 32.337 82.459 1.078 114.311l-359.586 366.323 359.909 370.58c31.097 32.013 30.343 83.213-1.671 114.311-32.013 31.043-83.213 30.397-114.311-1.671l-414.882-427.224c-30.666-31.421-30.504-81.597 0.269-112.909l414.882-422.696c15.791-16.115 36.756-24.199 57.667-24.199z"></path>
    </symbol>

    <symbol xmlns="http://www.w3.org/2000/svg" xmlns:xlink="http://www.w3.org/1999/xlink" viewBox="0 0 1024 1024" id="icon-angle-right">
        <path d="M296.421 1011.604c-20.426 0-40.906-7.707-56.643-23.175-31.852-31.259-32.337-82.459-1.078-114.311l359.586-366.323-359.855-370.634c-31.097-32.013-30.343-83.213 1.671-114.311s83.213-30.397 114.311 1.671l414.882 427.224c30.558 31.475 30.397 81.651-0.323 112.963l-414.882 422.643c-15.791 16.115-36.702 24.253-57.667 24.253z"></path>
    </symbol>

    <symbol xmlns="http://www.w3.org/2000/svg" xmlns:xlink="http://www.w3.org/1999/xlink" viewBox="0 0 1024 1024" id="icon-angle-up">
        <path d="M512 211l23 22 400 400-46 46-377-377-377 377-46-46 400-400z"></path>
    </symbol>

    <symbol xmlns="http://www.w3.org/2000/svg" xmlns:xlink="http://www.w3.org/1999/xlink" viewBox="0 0 1024 1024" id="icon-angle-down">
        <path d="M135 345l377 377 377-377 46 46-400 400-23 22-23-22-400-400z"></path>
    </symbol>

    <symbol xmlns="http://www.w3.org/2000/svg" xmlns:xlink="http://www.w3.org/1999/xlink" viewBox="0 0 1024 1024" id="icon-arrow-left">
        <path d="M425 217l46 46-217 217h642v64h-642l217 217-46 46-272-272-22-23 22-23z"></path>
    </symbol>

    <symbol xmlns="http://www.w3.org/2000/svg" xmlns:xlink="http://www.w3.org/1999/xlink" viewBox="0 0 1024 1024" id="icon-arrow-right">
        <path d="M599 217l272 272 22 23-22 23-272 272-46-46 217-217h-642v-64h642l-217-217z"></path>
    </symbol>

    <symbol xmlns="http://www.w3.org/2000/svg" xmlns:xlink="http://www.w3.org/1999/xlink" viewBox="0 0 1024 1024" id="icon-arrow-up">
        <path d="M512 131l23 22 272 272-46 46-217-217v642h-64v-642l-217 217-46-46 272-272z"></path>
    </symbol>

    <symbol xmlns="http://www.w3.org/2000/svg" xmlns:xlink="http://www.w3.org/1999/xlink" viewBox="0 0 1024 1024" id="icon-arrow-down">
        <path d="M480 128h64v642l217-217 46 46-272 272-23 22-23-22-272-272 46-46 217 217v-642z"></path>
    </symbol>

    <symbol xmlns="http://www.w3.org/2000/svg" xmlns:xlink="http://www.w3.org/1999/xlink" viewBox="0 0 30.5 21.75" id="icon-arrow-to-right">
        <path d="M29,0c-0.828,0-1.5,0.671-1.5,1.5v18.75c0,0.828,0.672,1.5,1.5,1.5s1.5-0.672,1.5-1.5V1.5
		C30.5,0.671,29.828,0,29,0z"></path>
	    <path d="M14.312,2.315c-0.585-0.586-1.535-0.588-2.121-0.002c-0.586,0.585-0.587,1.535-0.002,2.121L17.243,9.5H1.5
		C0.671,9.5,0,10.171,0,11c0,0.828,0.671,1.5,1.5,1.5h15.658l-4.84,4.811c-0.588,0.584-0.591,1.534-0.007,2.122
		c0.293,0.295,0.679,0.442,1.064,0.442c0.382,0,0.765-0.146,1.057-0.436l7.454-7.406c0.282-0.281,0.441-0.663,0.442-1.062
		c0.001-0.398-0.157-0.78-0.438-1.063L14.312,2.315z"></path>
    </symbol>

    <symbol xmlns="http://www.w3.org/2000/svg" xmlns:xlink="http://www.w3.org/1999/xlink" viewBox="0 0 1024 1024" id="icon-close">
        <path d="M231 185l281 281 281-281 46 46-281 281 281 281-46 46-281-281-281 281-46-46 281-281-281-281z"></path>
    </symbol>

    <symbol xmlns="http://www.w3.org/2000/svg" xmlns:xlink="http://www.w3.org/1999/xlink" viewBox="0 0 1024 1024" id="icon-whatsapp">
        <path d="M873.060 148.789c-95.781-95.9-223.184-148.749-358.91-148.789-279.657 0-507.34 227.604-507.42 507.38-0.040 89.409 23.298 176.747 67.744 253.65l-72.005 262.97 268.983-70.531c74.116 40.463 157.591 61.77 242.459 61.77h0.199c279.696 0 507.34-227.644 507.42-507.42 0.119-135.607-52.61-263.089-148.47-359.029zM514.15 929.533h-0.159c-75.669-0.040-149.904-20.391-214.661-58.823l-15.413-9.12-159.622 41.897 42.614-155.639-10.036-15.93c-42.215-67.186-64.518-144.806-64.478-224.458 0.080-232.582 189.292-421.755 421.954-421.755 112.627 0.040 218.524 43.968 298.175 123.619 79.612 79.731 123.42 185.708 123.42 298.375-0.119 232.622-189.292 421.834-421.795 421.834zM745.498 613.635c-12.665-6.372-75.032-37.038-86.661-41.259s-20.072-6.332-28.515 6.332c-8.483 12.704-32.737 41.259-40.144 49.742-7.447 8.443-14.815 9.518-27.48 3.146-12.665-6.332-53.526-19.714-101.954-62.925-37.715-33.613-63.164-75.151-70.571-87.816-7.408-12.704-0.040-18.917 5.576-25.847 13.74-17.045 27.44-34.927 31.701-43.37 4.222-8.483 2.111-15.851-1.075-22.223-3.146-6.372-28.475-68.779-39.069-94.148-10.275-24.732-20.709-21.386-28.515-21.785-7.408-0.358-15.851-0.438-24.294-0.438s-22.183 3.146-33.812 15.851c-11.629 12.704-44.326 43.41-44.326 105.777 0 62.407 45.441 122.703 51.773 131.186 6.332 8.443 89.409 136.523 216.572 191.442 30.268 13.063 53.884 20.869 72.284 26.723 30.387 9.638 58.026 8.284 79.851 5.018 24.334-3.664 75.032-30.706 85.586-60.296 10.554-29.63 10.554-54.999 7.368-60.296-3.146-5.297-11.629-8.483-24.294-14.815z"></path>
    </symbol>

    <symbol xmlns="http://www.w3.org/2000/svg" xmlns:xlink="http://www.w3.org/1999/xlink" viewBox="0 0 1024 1024" id="icon-telegram">
        <path d="M401.824 647.738l-16.938 238.261c24.239 0 34.728-10.413 47.322-22.912l113.63-108.604 235.435 172.427c43.168 24.069 73.591 11.399 85.256-39.717l154.56-724.19c13.694-63.843-23.083-88.803-65.151-73.136l-908.396 347.775c-62.003 24.088-61.054 58.645-10.546 74.293l232.249 72.244 539.435-337.533c25.378-16.823 48.479-7.511 29.493 9.293l-436.35 391.798z"></path>
    </symbol>
</svg>