<svg xmlns="http://www.w3.org/2000/svg" viewBox="0 0 50.27 50.41"><defs><style>.cls-1{fill:#574497;}.cls-2{fill:#a17a56;}</style></defs><title>icon-advantage-cycle</title><g id="Layer_2" data-name="Layer 2"><g id="Слой_1" data-name="Слой 1"><path class="cls-1" d="M25.25,11.92A13.08,13.08,0,1,0,38.34,25,13.1,13.1,0,0,0,25.25,11.92Zm7.16,22.64a21.36,21.36,0,0,0,.75-5.62,12.31,12.31,0,0,0-2.54-8,.57.57,0,0,0-.86.75A11.37,11.37,0,0,1,32,28.91C31.91,33.53,31,35.13,31,35.14a.56.56,0,0,0-.08.39,11.9,11.9,0,0,1-10,.56,20.93,20.93,0,0,0,5.2-2.4,12.29,12.29,0,0,0,5.36-6.42.57.57,0,0,0-1.1-.32,11.28,11.28,0,0,1-4.86,5.77c-4,2.39-5.82,2.46-5.83,2.46a.57.57,0,0,0-.37.14A12,12,0,0,1,13.36,26a22.26,22.26,0,0,0,4.17,3.37,12.77,12.77,0,0,0,7,2.13,7.71,7.71,0,0,0,1.15-.07.57.57,0,0,0-.18-1.13,11.37,11.37,0,0,1-7.3-1.88c-3.87-2.53-4.73-4.18-4.74-4.19l-.07-.1a11.93,11.93,0,0,1,4.46-8.43,23,23,0,0,0-.56,5.12,12.3,12.3,0,0,0,2.62,7.94.57.57,0,0,0,.85-.76,11.37,11.37,0,0,1-2.33-7.17c.06-4.18.82-5.89,1-6.19A11.9,11.9,0,0,1,30,14.06a22.62,22.62,0,0,0-4.93,1.87,12.3,12.3,0,0,0-5.88,6,.57.57,0,0,0,.33.74.58.58,0,0,0,.21,0,.57.57,0,0,0,.53-.36A11.28,11.28,0,0,1,25.6,17c4.15-2,6-2,6-2h.12a12,12,0,0,1,5.35,8.46A21.37,21.37,0,0,0,32.61,20a12.29,12.29,0,0,0-8.18-1.76.57.57,0,1,0,.22,1.12A11.28,11.28,0,0,1,32,21c4,2.39,4.88,4,4.89,4a.56.56,0,0,0,.28.26A11.93,11.93,0,0,1,32.41,34.56Z"/><path class="cls-2" d="M25.28,0c-.57.12-1,.25-1.55.4s-1,.32-1.47.5a27.62,27.62,0,0,0-2.83,1.25A36.41,36.41,0,0,0,13.57,6L13,6.46,11,4.11c-.19,2.8-.64,4.83-.76,7.68a65.49,65.49,0,0,1,6.86-.89L14.64,8.28l.48-.41a34,34,0,0,1,5.41-3.57,25.37,25.37,0,0,1,2.58-1.14q.66-.25,1.33-.45c.44-.13,1.82-.56,2.22-.64Z"/><path class="cls-2" d="M3,12.16c-.16.55-.27,1-.37,1.56s-.18,1-.25,1.53a27.43,27.43,0,0,0-.22,3.08,36.35,36.35,0,0,0,.66,7L3,26l-3,.68c2.38,1.48,4,2.82,6.43,4.27a65.62,65.62,0,0,1,2.43-6.48l-3.48,1-.14-.61a34,34,0,0,1-.61-6.45,25.61,25.61,0,0,1,.2-2.81q.09-.7.22-1.38c.09-.45.36-1.87.47-2.26Z"/><path class="cls-2" d="M3.94,38c.39.42.76.76,1.15,1.12s.79.68,1.19,1a27.69,27.69,0,0,0,2.54,1.76,36.28,36.28,0,0,0,6.35,3l.65.22-1,2.95c2.48-1.29,4.45-2,7-3.35a65.65,65.65,0,0,1-4.33-5.39l-.94,3.49L16,42.6a34,34,0,0,1-5.86-2.76,25.47,25.47,0,0,1-2.32-1.61c-.37-.29-.73-.59-1.08-.9S5.27,36.06,5,35.76Z"/><path class="cls-2" d="M25.52,50.41c.56-.15,1-.31,1.53-.49s1-.38,1.44-.59a27.8,27.8,0,0,0,2.75-1.42,36.43,36.43,0,0,0,5.62-4.2l.49-.48,2.15,2.23c0-2.8.34-4.86.3-7.72A66.12,66.12,0,0,1,33,39l2.64,2.47-.45.44A34.1,34.1,0,0,1,30,45.83a25.57,25.57,0,0,1-2.51,1.29q-.64.29-1.3.53c-.43.16-1.78.67-2.18.77Z"/><path class="cls-2" d="M46.9,37.77c.18-.55.29-1,.41-1.55s.2-1,.28-1.53a27.87,27.87,0,0,0,.29-3.08,36.47,36.47,0,0,0-.51-7l-.13-.67,3-.61c-2.35-1.53-3.9-2.91-6.33-4.42a65.59,65.59,0,0,1-2.57,6.42l3.5-.89.12.61a33.91,33.91,0,0,1,.47,6.47,25.06,25.06,0,0,1-.26,2.81c-.07.47-.15.92-.25,1.38s-.4,1.86-.53,2.25Z"/><path class="cls-2" d="M45.71,12c-.4-.41-.78-.75-1.18-1.09s-.8-.66-1.22-1a27.53,27.53,0,0,0-2.58-1.7,36.36,36.36,0,0,0-6.42-2.83l-.66-.2.88-3c-2.45,1.36-4.4,2.08-6.87,3.53a66,66,0,0,1,4.47,5.28L33,7.55l.6.18a34,34,0,0,1,5.93,2.61,25.56,25.56,0,0,1,2.36,1.55q.57.42,1.1.87c.35.3,1.46,1.23,1.74,1.52Z"/></g></g></svg>