<svg xmlns="http://www.w3.org/2000/svg" viewBox="0 0 48.97 21.92"><defs><style>.cls-1{fill:#986a46;}.cls-2{fill:#574497;}</style></defs><title>icon-advantage-infinity</title><g id="Layer_2" data-name="Layer 2"><g id="Слой_1" data-name="Слой 1"><path class="cls-1" d="M11,21.92A11,11,0,0,1,11,0c3.73,0,8.24,3.88,11.36,7.13A.95.95,0,1,1,21,8.45C16.89,4.23,13.34,1.9,11,1.9A9.06,9.06,0,0,0,11,20c4.15,0,10.61-7,12.75-9.65a.95.95,0,1,1,1.49,1.18C24.85,12,16.88,21.92,11,21.92Z"/><path class="cls-2" d="M38,0c-5.57,0-13,8.81-14.08,10.18V13a1,1,0,0,0,.33-.25l1-1.2C27.41,8.86,33.86,1.9,38,1.9A9.06,9.06,0,0,1,38,20c-2.2,0-5.45-2-9.15-5.69a.95.95,0,1,0-1.34,1.35c4.18,4.14,7.7,6.24,10.48,6.24A11,11,0,0,0,38,0Z"/></g></g></svg>