<svg xmlns="http://www.w3.org/2000/svg" viewBox="0 0 49.51 43.46"><defs><style>.cls-1{fill:#574497;}.cls-2{fill:#986a46;}</style></defs><title>icon-advantage-receipt</title><g id="Layer_2" data-name="Layer 2"><g id="Слой_1" data-name="Слой 1"><path class="cls-1" d="M49.51,15a4.92,4.92,0,0,0-4.91-4.91H21.3v1.66H40.93A4.89,4.89,0,0,0,39.68,15v26.2l-4.11-2.41a.83.83,0,0,0-.87,0l-4.4,2.85L26,38.8a.83.83,0,0,0-.91,0L20.7,41.65,16.35,38.8a.83.83,0,0,0-.89,0L11.7,41.14v-20a.83.83,0,0,0-1.66,0V42.64a.83.83,0,0,0,.83.83.84.84,0,0,0,.44-.13l4.57-2.87,4.36,2.85a.82.82,0,0,0,.9,0l4.4-2.85,4.29,2.85a.83.83,0,0,0,.91,0l4.43-2.87,4.91,2.89a.83.83,0,0,0,1.25-.71V26.35h8.17V15ZM47.85,24.7H41.34V15a3.26,3.26,0,0,1,6.51,0Z"/><path class="cls-1" d="M33.28,19.29a.83.83,0,0,0,0-1.66H26.55a.83.83,0,0,0,0,1.66Z"/><path class="cls-1" d="M18,26.19H33.28a.83.83,0,0,0,0-1.66H18a.83.83,0,1,0,0,1.66Z"/><path class="cls-1" d="M18,33.09H33.28a.83.83,0,0,0,0-1.66H18a.83.83,0,1,0,0,1.66Z"/><path class="cls-2" d="M11,0a11,11,0,1,0,11,11A11,11,0,0,0,11,0Zm0,20.28A9.31,9.31,0,1,1,20.28,11,9.32,9.32,0,0,1,11,20.28Z"/><path class="cls-2" d="M13.44,8a2.42,2.42,0,0,0-.87-.5,3.86,3.86,0,0,0-1.25-.18H8.93v3.69H7.86a.5.5,0,1,0,0,1H8.93V13H8a.5.5,0,1,0,0,1h.92v.86h1.48V14h.17a.5.5,0,0,0,0-1h-.17v-.74h.92a3.69,3.69,0,0,0,1.23-.18,2.39,2.39,0,0,0,.87-.51,2.06,2.06,0,0,0,.52-.78,2.82,2.82,0,0,0,.17-1,2.74,2.74,0,0,0-.16-1A1.92,1.92,0,0,0,13.44,8Zm-1.12,2.69a1.26,1.26,0,0,1-1,.36h-.92V8.5h.92a1.16,1.16,0,0,1,1.31,1.26A1.43,1.43,0,0,1,12.32,10.73Z"/></g></g></svg>