<svg xmlns="http://www.w3.org/2000/svg" viewBox="0 0 49.52 16.58"><defs><style>.cls-1{fill:#976b44;}.cls-2{fill:#574497;}</style></defs><title>icon-advantage-100</title><g id="Layer_2" data-name="Layer 2"><g id="Слой_1" data-name="Слой 1"><path class="cls-1" d="M0,12.4,8.81,8.33,0,4.23V2.69l10.84,5V9L0,13.93Z"/><path class="cls-2" d="M17.24.4h3.1V16.19H18.77V1.94H16.3Z"/><path class="cls-2" d="M25.29,8.3A13.27,13.27,0,0,1,26,3.47a5.62,5.62,0,0,1,2-2.59A4.85,4.85,0,0,1,30.78,0a5,5,0,0,1,2.88.89,5.91,5.91,0,0,1,2,2.66,12.41,12.41,0,0,1,.75,4.76A12.47,12.47,0,0,1,35.71,13a5.89,5.89,0,0,1-2,2.66,5,5,0,0,1-2.89.9A4.84,4.84,0,0,1,28,15.72a5.63,5.63,0,0,1-2-2.59A13.13,13.13,0,0,1,25.29,8.3Zm1.55,0a12.57,12.57,0,0,0,.5,4,4.29,4.29,0,0,0,1.46,2.08,3.32,3.32,0,0,0,4.08,0,4.24,4.24,0,0,0,1.44-2.08,12,12,0,0,0,.61-4.06,11.76,11.76,0,0,0-.55-3.91,4.56,4.56,0,0,0-1.51-2.22,3.3,3.3,0,0,0-4.07,0,4.33,4.33,0,0,0-1.46,2.07A12.51,12.51,0,0,0,26.84,8.32Z"/><path class="cls-2" d="M38.23,8.3a13.12,13.12,0,0,1,.7-4.83,5.62,5.62,0,0,1,2-2.59A4.94,4.94,0,0,1,43.79,0,5.06,5.06,0,0,1,46.7.89a5.91,5.91,0,0,1,2.06,2.66,12.31,12.31,0,0,1,.76,4.76A12.32,12.32,0,0,1,48.77,13a5.89,5.89,0,0,1-2.06,2.66,5.09,5.09,0,0,1-2.92.9,4.94,4.94,0,0,1-2.85-.87,5.65,5.65,0,0,1-2-2.59A13,13,0,0,1,38.23,8.3Zm1.56,0a12.47,12.47,0,0,0,.5,4,4.3,4.3,0,0,0,1.48,2.08,3.39,3.39,0,0,0,4.13,0,4.23,4.23,0,0,0,1.45-2.08A11.84,11.84,0,0,0,48,8.32a11.65,11.65,0,0,0-.55-3.91A4.58,4.58,0,0,0,45.9,2.19a3.37,3.37,0,0,0-4.12,0A4.34,4.34,0,0,0,40.3,4.27,12.41,12.41,0,0,0,39.8,8.32Z"/></g></g></svg>