<svg xmlns="http://www.w3.org/2000/svg" viewBox="0 0 50.01 45.24"><defs><style>.cls-1{fill:#634ead;}.cls-2{fill:#dcb18f;}</style></defs><title>logo</title><g id="Layer_2" data-name="Layer 2"><g id="Слой_1" data-name="Слой 1"><path class="cls-1" d="M45.07,27.21l-2,2a13.1,13.1,0,0,1,2.56,3.46l2.55-1.12A15.8,15.8,0,0,0,45.07,27.21Z"/><path class="cls-1" d="M3.27,33.11h3.2A20.44,20.44,0,0,1,8.18,30.8l-2-2A20.88,20.88,0,0,0,3.27,33.11Z"/><path class="cls-2" d="M8.18,30.8,22.62,45.24l5.92-5.92L14.78,25.56A21.7,21.7,0,0,0,8.18,30.8Z"/><path class="cls-2" d="M12.7,23.48l-1.21-1.21,16.7-16.7L22.62,0,0,22.62l6.19,6.18A24.17,24.17,0,0,1,12.7,23.48Z"/><path class="cls-1" d="M14.78,25.56,12.7,23.48a24.17,24.17,0,0,0-6.51,5.33l2,2A21.7,21.7,0,0,1,14.78,25.56Z"/><path class="cls-1" d="M30.75,3,28.19,5.57l-16.7,16.7,1.21,1.21a26.71,26.71,0,0,1,13.55-3.24c7.81.08,13.05,2.41,16.45,4.92a20.49,20.49,0,0,1,2.37,2L50,22.27Z"/><path class="cls-1" d="M40.71,27.15C37.7,25,33.09,23.09,26.22,23a24,24,0,0,0-11.44,2.54L28.54,39.32l2.21,2.21L43.11,29.17A17.85,17.85,0,0,0,40.71,27.15Z"/><path class="cls-2" d="M42.7,25.16c-3.4-2.52-8.64-4.84-16.45-4.92A26.71,26.71,0,0,0,12.7,23.48l2.08,2.08A24,24,0,0,1,26.22,23c6.87.08,11.48,2,14.49,4.13a17.85,17.85,0,0,1,2.4,2l2-2A20.49,20.49,0,0,0,42.7,25.16Z"/><circle class="cls-2" cx="31.37" cy="29.42" r="4.95"/></g></g></svg>