<svg viewBox="0 0 83.48 47.74" xmlns="http://www.w3.org/2000/svg"><path d="m83.48 16.75a1.73 1.73 0 0 0 -1.69-1.69 1.61 1.61 0 0 0 -.38 0h-8.81a1.64 1.64 0 0 0 -1.52 1 1.57 1.57 0 0 0 -.15.95c.58 3.74.75 11.77-2.38 12.74a1.59 1.59 0 0 0 .45 3.19 1.62 1.62 0 0 0 .47-.07c5.39-1.67 5.17-10.52 4.79-14.48h5.86v12.31a1.64 1.64 0 1 0 3.28 0v-13.57a1.63 1.63 0 0 0 .08-.38z" fill="#808283"/><path d="m58.2 15.21a9 9 0 1 0 9 9 9 9 0 0 0 -9-9zm0 14.9a5.86 5.86 0 1 1 5.86-5.86 5.87 5.87 0 0 1 -5.86 5.86z" fill="#808283"/><g fill="#ae294d"><path d="m28.65 36.91a1.64 1.64 0 0 0 1.64-1.64v-4a1.64 1.64 0 0 0 -1.64-1.64 1.67 1.67 0 0 0 -.38 0h-.46v-12.5a1.67 1.67 0 0 0 -2-2h-8.81a1.64 1.64 0 0 0 -1.52 1 1.59 1.59 0 0 0 -.15.95c.56 3.6.73 11.18-2.06 12.59a1.63 1.63 0 0 0 -1.42 1.48v.07s0 0 0 .08v4a1.64 1.64 0 0 0 3.28 0v-2.3h11.87v2.28a1.64 1.64 0 0 0 1.65 1.63zm-10-18.52h5.86v11.32h-7.13c1.74-3.43 1.55-8.56 1.29-11.32z"/><path d="m45.34 15.36a1.6 1.6 0 0 0 -1 .37 1.61 1.61 0 0 0 -.61.5l-8.57 10.88v-10.11a1.64 1.64 0 1 0 -3.28 0v14.27a1.68 1.68 0 0 0 .22.82 1.63 1.63 0 0 0 2.9.52l8.7-11.07v9.73a1.64 1.64 0 1 0 3.28 0v-14.27a1.66 1.66 0 0 0 -1.64-1.64z"/><path d="m36 38.22a18.69 18.69 0 0 1 -13.38 5.55 18.53 18.53 0 0 1 -18.62-18.35 18.53 18.53 0 0 1 18.65-18.34h3.47v2a1.19 1.19 0 0 0 1.19 1.19 1.18 1.18 0 0 0 .49-.1l8.85-4a1.19 1.19 0 0 0 0-2.17l-8.86-3.9a1.19 1.19 0 0 0 -1.68 1.09v1.92h-3.47a22.5 22.5 0 0 0 -22.64 22.31 22.51 22.51 0 0 0 22.65 22.32 22.64 22.64 0 0 0 16.19-6.74 2 2 0 1 0 -2.84-2.78z"/></g></svg>