<svg xmlns="http://www.w3.org/2000/svg" viewBox="0 0 60.67 59.85"><defs><style>.cls-1{fill:#fff;}</style></defs><title>icon-requirement-location</title><g id="Layer_2" data-name="Layer 2"><g id="Слой_1" data-name="Слой 1"><path class="cls-1" d="M60.67,27.68A1.47,1.47,0,0,0,60.5,27V15.27a1.5,1.5,0,0,0-1.5-1.5H50.32l7.86-4.93A4.78,4.78,0,1,0,53.1.73L49.26,3.14l-.09,0-.07.07L32.26,13.81a1.51,1.51,0,0,0-.34,0H11V6.6A1.5,1.5,0,0,0,9.5,5.1C4.26,5.1,0,9.09,0,14V49.35a1.49,1.49,0,0,0,0,.27q0,.31,0,.63v.69c0,4.91,4.26,8.9,9.5,8.9H59a1.5,1.5,0,0,0,1.5-1.5v-30A1.47,1.47,0,0,0,60.67,27.68ZM29.36,19l2,3.13-7,2Zm4.37,2.26-2.43-3.87,1.08-.67A1.49,1.49,0,0,0,33,16.3L49.45,6l2.43,3.87ZM54.43,2.85a2.33,2.33,0,0,1,3.15.72,2.28,2.28,0,0,1-.72,3.15L54,8.51,51.57,4.65ZM28,16.77l-8.74,8.88a1.25,1.25,0,0,0,1.23,2.08l12.67-3.55.16,0A1.25,1.25,0,0,0,34,24l9.75-6.12V32.68H11V16.77ZM3,14A6.06,6.06,0,0,1,8,8.26v33.2a9.73,9.73,0,0,0-5,2.31ZM3,50.95v-.69c0-3.26,2.92-5.9,6.5-5.9a1.5,1.5,0,0,0,1.5-1.5V35.68H46.75V16.77H57.5v9.42H51.17a1.5,1.5,0,0,0,0,3H57.5V40.6H37.67V56.85H21.17V43.43H32.92a1.5,1.5,0,0,0,0-3H19.67a1.5,1.5,0,0,0-1.5,1.5V56.85H9.5C5.92,56.85,3,54.2,3,50.95Zm37.67,5.9V43.6H57.5V56.85Z"/></g></g></svg>