<svg xmlns="http://www.w3.org/2000/svg" viewBox="0 0 62.19 62.73"><defs><style>.cls-1{fill:#fff;}</style></defs><title>icon-requirement-purpose</title><g id="Layer_2" data-name="Layer 2"><g id="Слой_1" data-name="Слой 1"><path class="cls-1" d="M53.28,20.73a1.5,1.5,0,0,0-.72,2A26,26,0,1,1,40,10.15a1.5,1.5,0,1,0,1.27-2.72,29,29,0,1,0,14.06,14A1.5,1.5,0,0,0,53.28,20.73Z"/><path class="cls-1" d="M38.13,17.64a1.5,1.5,0,0,0-.73-2,19.92,19.92,0,1,0,9.67,9.64,1.5,1.5,0,1,0-2.72,1.27,16.77,16.77,0,0,1,1.59,7.17,16.93,16.93,0,1,1-9.8-15.36A1.5,1.5,0,0,0,38.13,17.64Z"/><path class="cls-1" d="M29,25.8a8.05,8.05,0,0,1,1.08.07,1.5,1.5,0,1,0,.4-3A11.19,11.19,0,0,0,29,22.8a10.93,10.93,0,1,0,10.67,8.53,1.5,1.5,0,1,0-2.93.66A7.94,7.94,0,1,1,29,25.8Z"/><path class="cls-1" d="M62.13,7.33A1.5,1.5,0,0,0,61,6.3l-4.26-.82-.82-4.26A1.5,1.5,0,0,0,53.36.44L45.58,8.22a1.5,1.5,0,0,0-.41,1.35l.89,4.59-17.86,18a1.5,1.5,0,0,0,2.13,2.11L48.26,16.18l4.36.84.28,0A1.5,1.5,0,0,0,54,16.61l7.78-7.78A1.51,1.51,0,0,0,62.13,7.33Zm-9.71,6.59-3.48-.67-.67-3.48,5.22-5.22L54,7a1.5,1.5,0,0,0,1.19,1.19l2.49.48Z"/></g></g></svg>