<svg xmlns="http://www.w3.org/2000/svg" viewBox="0 0 63.33 54"><defs><style>.cls-1{fill:#fff;}</style></defs><title>icon-requirement-network</title><g id="Layer_2" data-name="Layer 2"><g id="Слой_1" data-name="Слой 1"><path class="cls-1" d="M56.83,0H6.5A6.51,6.51,0,0,0,0,6.5v41A6.51,6.51,0,0,0,6.5,54H56.83a6.51,6.51,0,0,0,6.5-6.5V6.5A6.51,6.51,0,0,0,56.83,0Zm3.5,47.5a3.5,3.5,0,0,1-3.5,3.5H6.5A3.5,3.5,0,0,1,3,47.5V6.5A3.5,3.5,0,0,1,6.5,3H56.83a3.5,3.5,0,0,1,3.5,3.5Z"/><path class="cls-1" d="M25.95,31.05l-7.56-10A1.5,1.5,0,0,0,16,22.86l7.56,10a1.5,1.5,0,0,0,2.39-1.81Z"/><path class="cls-1" d="M51.35,16.23l-5.83,1.08a1.5,1.5,0,1,0,.55,3L47.53,20,36.45,30.82A1.5,1.5,0,0,0,38.55,33L49.92,21.85l-.09,1.87a1.5,1.5,0,0,0,1.43,1.57h.07a1.5,1.5,0,0,0,1.5-1.43l.29-6.08a1.5,1.5,0,0,0-1.77-1.55Z"/><path class="cls-1" d="M36.81,15.86l-1.52-1.52,1.52-1.52a1.5,1.5,0,0,0-2.12-2.12l-1.52,1.52-1.52-1.52a1.5,1.5,0,0,0-2.12,2.12L31,14.33l-1.52,1.52A1.5,1.5,0,0,0,31.65,18l1.52-1.52L34.69,18a1.5,1.5,0,1,0,2.12-2.12Z"/><path class="cls-1" d="M51.73,35.94a1.5,1.5,0,0,0-2.12,0l-1.52,1.52-1.52-1.52a1.5,1.5,0,1,0-2.12,2.12L46,39.58,44.44,41.1a1.5,1.5,0,0,0,2.12,2.12l1.52-1.52,1.52,1.52a1.5,1.5,0,1,0,2.12-2.12l-1.52-1.52,1.52-1.52A1.5,1.5,0,0,0,51.73,35.94Z"/><circle class="cls-1" cx="11.96" cy="14.21" r="4.13"/><circle class="cls-1" cx="30.13" cy="39.29" r="4.13"/></g></g></svg>