<svg xmlns="http://www.w3.org/2000/svg" xmlns:xlink="http://www.w3.org/1999/xlink" viewBox="0 0 47.9 39.75"><defs><style>.cls-1{fill:url(#radial-gradient);}.cls-2{fill:url(#radial-gradient-2);}</style><radialGradient id="radial-gradient" cx="30.38" cy="26.75" r="38.27" gradientTransform="matrix(1, 0, 0, -1, 0, 39.75)" gradientUnits="userSpaceOnUse"><stop offset="0.16" stop-color="#ae88ff"/><stop offset="0.5" stop-color="#7e63c6"/><stop offset="0.82" stop-color="#654fa8"/><stop offset="1" stop-color="#5c489d"/></radialGradient><radialGradient id="radial-gradient-2" cx="26.38" cy="35.13" r="22.49" gradientTransform="matrix(1, 0, 0, -1, 0, 39.75)" gradientUnits="userSpaceOnUse"><stop offset="0" stop-color="#e7bd78"/><stop offset="1" stop-color="#9f7349"/></radialGradient></defs><title>icon-category-tv</title><g id="Layer_2" data-name="Layer 2"><g id="Слой_1" data-name="Слой 1"><path class="cls-1" d="M34.38,36.75a3,3,0,0,1-3,3H3a3,3,0,0,1-3-3V17.63a3,3,0,0,1,3-3H31.38a3,3,0,0,1,3,3Z"/><circle class="cls-2" cx="11.06" cy="6.31" r="6.31"/><circle class="cls-2" cx="25.06" cy="6.31" r="6.31"/><path class="cls-2" d="M45.8,17l-7.6,5.41v9.77l7.6,6.31a2.1,2.1,0,0,0,2.1-2.1V19.1A2.1,2.1,0,0,0,45.8,17Z"/></g></g></svg>