<svg xmlns="http://www.w3.org/2000/svg" xmlns:xlink="http://www.w3.org/1999/xlink" viewBox="0 0 50.44 31.75"><defs><style>.cls-1{fill:url(#radial-gradient);}.cls-2{fill:url(#radial-gradient-3);}</style><radialGradient id="radial-gradient" cx="8.94" cy="15.5" r="19.85" gradientTransform="matrix(1, 0, 0, -1, 0, 30.5)" gradientUnits="userSpaceOnUse"><stop offset="0" stop-color="#e7bd78"/><stop offset="1" stop-color="#9f7349"/></radialGradient><radialGradient id="radial-gradient-3" cx="15.44" cy="29.25" r="31.78" gradientTransform="matrix(1, 0, 0, -1, 0, 30.5)" gradientUnits="userSpaceOnUse"><stop offset="0" stop-color="#ae88ff"/><stop offset="0.08" stop-color="#a682f5"/><stop offset="0.5" stop-color="#7e63c6"/><stop offset="0.82" stop-color="#654fa8"/><stop offset="1" stop-color="#5c489d"/></radialGradient></defs><title>icon-category-university</title><g id="Layer_2" data-name="Layer 2"><g id="Слой_1" data-name="Слой 1"><polygon class="cls-1" points="37.16 16.43 37.16 16.4 13.61 16.4 25.25 21.13 37.16 16.43"/><path class="cls-1" d="M25.62,22.06l-.37.15-.37-.15L10.95,16.4h0v10h0c.2,2.95,6,5.31,13.11,5.31s12.91-2.37,13.11-5.31h0V17.51Z"/><path class="cls-2" d="M49.69,22.13V11.5l.31-.12L24.75,0,0,10.88,25.25,21.13l23.31-9.18V22.13a.94.94,0,0,0-.75.9v2.24a1,1,0,0,0,1,.94h.62a1,1,0,0,0,1-.94V23A.94.94,0,0,0,49.69,22.13Z"/></g></g></svg>