<svg xmlns="http://www.w3.org/2000/svg" xmlns:xlink="http://www.w3.org/1999/xlink" viewBox="0 0 36.79 48.59"><defs><style>.cls-1{fill:url(#radial-gradient);}.cls-2{fill:url(#radial-gradient-2);}.cls-3{fill:url(#radial-gradient-3);}</style><radialGradient id="radial-gradient" cx="16.49" cy="15.49" r="17" gradientTransform="matrix(1, 0, 0, -1, 0, 47.1)" gradientUnits="userSpaceOnUse"><stop offset="0" stop-color="#e7bd78"/><stop offset="1" stop-color="#9f7349"/></radialGradient><radialGradient id="radial-gradient-2" cx="19.71" cy="21.07" r="31.19" gradientTransform="matrix(1, 0, 0, -1, 0, 47.1)" gradientUnits="userSpaceOnUse"><stop offset="0" stop-color="#ae88ff"/><stop offset="0.08" stop-color="#a682f5"/><stop offset="0.5" stop-color="#7e63c6"/><stop offset="0.82" stop-color="#654fa8"/><stop offset="1" stop-color="#5c489d"/></radialGradient><radialGradient id="radial-gradient-3" cx="19.71" cy="21.07" r="31.19" xlink:href="#radial-gradient-2"/></defs><title>icon-category-industry</title><g id="Layer_2" data-name="Layer 2"><g id="Слой_1" data-name="Слой 1"><path class="cls-1" d="M25.25,38.05a.42.42,0,0,0-.3-.12l-2.13-.41a6.91,6.91,0,0,0-.73-1.91l1.18-1.74a.43.43,0,0,0,0-.61l-.63-.63L22,32a.43.43,0,0,0-.3-.13.42.42,0,0,0-.3.13l-1.67,1.13a6.89,6.89,0,0,0-2-.87l-.37-1.94a.43.43,0,0,0-.43-.43H15.14a.43.43,0,0,0-.3.13.43.43,0,0,0-.12.3l-.37,1.93a7,7,0,0,0-2,.87L10.66,32a.42.42,0,0,0-.3-.13A.42.42,0,0,0,10,32l-.63.63-.63.63a.43.43,0,0,0-.12.3.43.43,0,0,0,.13.31l1.15,1.7a6.93,6.93,0,0,0-.76,2l-2.07.4a.42.42,0,0,0-.3.13.43.43,0,0,0-.12.3v1.77a.43.43,0,0,0,.43.43L9.31,41a7,7,0,0,0,.78,1.73L8.8,44.62a.42.42,0,0,0-.12.3.43.43,0,0,0,.13.3l.63.63.63.63a.43.43,0,0,0,.61,0l2-1.34a7,7,0,0,0,1.62.64l.46,2.38a.43.43,0,0,0,.43.43h1.77a.43.43,0,0,0,.43-.43l.46-2.39a6.87,6.87,0,0,0,1.6-.64l2,1.35a.43.43,0,0,0,.61,0l.63-.63.63-.63a.43.43,0,0,0,0-.61l-1.32-1.94A6.88,6.88,0,0,0,22.7,41l2.24-.43a.42.42,0,0,0,.3-.12.43.43,0,0,0,.13-.3V38.36A.43.43,0,0,0,25.25,38.05ZM11.92,39A4.08,4.08,0,1,1,16,43.11,4.08,4.08,0,0,1,11.92,39Z"/><path class="cls-2" d="M36.73,32.18a.3.3,0,0,0-.19-.12l-1.42-.51a4.86,4.86,0,0,0-.3-1.39l1-1.07a.31.31,0,0,0,.12-.19.29.29,0,0,0-.06-.22l-.36-.5-.36-.5a.3.3,0,0,0-.42-.06l-1.27.6a4.82,4.82,0,0,0-1.29-.81l0-1.37a.3.3,0,0,0-.25-.34l-.61-.09-.61-.09a.3.3,0,0,0-.34.25L29.85,27a4.84,4.84,0,0,0-1.5.38l-1-.94a.3.3,0,0,0-.19-.12.29.29,0,0,0-.22.05l-.5.36-.5.36a.3.3,0,0,0-.06.42l.61,1.29a4.7,4.7,0,0,0-.73,1.27l-1.47.05a.3.3,0,0,0-.34.25l-.09.61-.1.61a.3.3,0,0,0,.06.22A.29.29,0,0,0,24,32l1.46.53a4.91,4.91,0,0,0,.35,1.27l-1.09,1.17a.3.3,0,0,0-.06.42l.37.5.36.5a.31.31,0,0,0,.2.12.3.3,0,0,0,.22-.06l1.5-.71a4.86,4.86,0,0,0,1,.61L28.41,38a.3.3,0,0,0,.25.34l.61.1.61.09a.3.3,0,0,0,.34-.25l.57-1.6A4.84,4.84,0,0,0,32,36.41l1.23,1.15a.3.3,0,0,0,.2.12.3.3,0,0,0,.22-.05l.5-.37.5-.36a.3.3,0,0,0,.12-.19.3.3,0,0,0-.06-.22L34,35a4.62,4.62,0,0,0,.69-1.07l1.59-.06a.29.29,0,0,0,.22-.06.29.29,0,0,0,.12-.19l.09-.61.1-.61A.29.29,0,0,0,36.73,32.18Zm-3.65.12a2.84,2.84,0,1,1-2.37-3.24A2.84,2.84,0,0,1,33.08,32.3Z"/><path class="cls-3" d="M22.71,24.26A11.4,11.4,0,0,0,24.88,22l3.81.64a.71.71,0,0,0,.56,0,.72.72,0,0,0,.38-.41l.52-1.4.52-1.4a.73.73,0,0,0,0-.56.71.71,0,0,0-.41-.38l-3.13-1.9a11.77,11.77,0,0,0,0-3.45L30,11.1a.72.72,0,0,0,.38-.41.71.71,0,0,0,0-.55l-.63-1.36-.62-1.36a.73.73,0,0,0-1-.36l-3.3.8a11.63,11.63,0,0,0-2.68-2.56L22.68,2a.7.7,0,0,0,0-.56.71.71,0,0,0-.41-.38L20.85.57,19.45,0a.73.73,0,0,0-.94.43L16.79,3.3A11.8,11.8,0,0,0,13,3.47L11.1.75A.72.72,0,0,0,10.7.37a.71.71,0,0,0-.55,0L8.78,1l-1.36.62a.72.72,0,0,0-.36,1L7.89,6A11.61,11.61,0,0,0,5.53,8.62L2,8a.71.71,0,0,0-.56,0,.71.71,0,0,0-.38.41L.57,9.86,0,11.26a.72.72,0,0,0,0,.56.71.71,0,0,0,.41.38l3.21,2a11.86,11.86,0,0,0,.21,3.2L.75,19.6a.73.73,0,0,0-.36,1L1,21.92l.62,1.36a.72.72,0,0,0,1,.36l3.91-1a11.75,11.75,0,0,0,2.2,2l-.68,4a.73.73,0,0,0,.43.93l1.4.52,1.4.52a.73.73,0,0,0,.93-.43l2.14-3.51a11.86,11.86,0,0,0,2.9-.08L19.61,30a.72.72,0,0,0,.41.38.71.71,0,0,0,.55,0l1.36-.63,1.36-.62a.72.72,0,0,0,.36-1ZM21.9,17.4a6.89,6.89,0,1,1-4.06-8.85A6.89,6.89,0,0,1,21.9,17.4Z"/></g></g></svg>