<svg xmlns="http://www.w3.org/2000/svg" xmlns:xlink="http://www.w3.org/1999/xlink" viewBox="0 0 49.08 37.92"><defs><style>.cls-1{fill:url(#radial-gradient);}.cls-2{fill:url(#radial-gradient-2);}</style><radialGradient id="radial-gradient" cx="3.33" cy="13.62" r="45.13" gradientTransform="matrix(1, 0, 0, -1, 0, 36.33)" gradientUnits="userSpaceOnUse"><stop offset="0" stop-color="#e7bd78"/><stop offset="1" stop-color="#9f7349"/></radialGradient><radialGradient id="radial-gradient-2" cx="2.17" cy="25.58" r="56.17" gradientTransform="matrix(1, 0, 0, -1, 0, 36.33)" gradientUnits="userSpaceOnUse"><stop offset="0" stop-color="#ae88ff"/><stop offset="0.08" stop-color="#a682f5"/><stop offset="0.5" stop-color="#7e63c6"/><stop offset="0.82" stop-color="#654fa8"/><stop offset="1" stop-color="#5c489d"/></radialGradient></defs><title>icon-category-school</title><g id="Layer_2" data-name="Layer 2"><g id="Слой_1" data-name="Слой 1"><path class="cls-1" d="M47.45,24.45,25.57,35.84,3.57,29A2.36,2.36,0,0,1,2,26.83C2,25,4.24,24.77,4.49,24.75A1,1,0,0,0,5,24.52l20.34,6.35a1,1,0,0,0,.3,0,1,1,0,0,0,.46-.11L48.38,19.22a1,1,0,1,0-.92-1.77L25.57,28.84,3.57,22A2.36,2.36,0,0,1,2,19.83C2,18,4.24,17.77,4.49,17.75a1,1,0,1,0-.14-2C2.84,15.86,0,16.86,0,19.83a4.12,4.12,0,0,0,2.07,3.6A3.72,3.72,0,0,0,0,26.83a4.36,4.36,0,0,0,3,4l22.42,7a1,1,0,0,0,.3,0,1,1,0,0,0,.46-.11L48.38,26.22a1,1,0,1,0-.93-1.77Z"/><path class="cls-2" d="M47.45,10.78,25.57,22.17l-22-6.87A2.36,2.36,0,0,1,2,13.17c0-1.83,2.24-2.07,2.49-2.09a1,1,0,0,0,.16,0l20.77,6.65L47.8,6.59s1.29-.61,1.29-1.3-2.47-1-2.47-1L25.75,0,3.93,9.14C2.37,9.38,0,10.45,0,13.17a4.37,4.37,0,0,0,3,4l22.42,7a1,1,0,0,0,.3,0,1,1,0,0,0,.46-.11L48.38,12.55a1,1,0,1,0-.92-1.77Zm-24.62.95,5,1.64a.42.42,0,0,1,.43.41,21.36,21.36,0,0,1-2.13.77l-5-1.64a.42.42,0,0,1-.43-.41A21.36,21.36,0,0,1,22.84,11.73Z"/></g></g></svg>