<svg xmlns="http://www.w3.org/2000/svg" xmlns:xlink="http://www.w3.org/1999/xlink" viewBox="0 0 44.92 38.43"><defs><style>.cls-1{fill:url(#radial-gradient);}.cls-2{fill:url(#radial-gradient-2);}.cls-3{fill:#704f33;opacity:0.52;isolation:isolate;}</style><radialGradient id="radial-gradient" cx="21.67" cy="48.22" r="50.86" gradientTransform="matrix(1, 0, 0, -1, 0, 37.69)" gradientUnits="userSpaceOnUse"><stop offset="0" stop-color="#ae88ff"/><stop offset="0.08" stop-color="#a682f5"/><stop offset="0.5" stop-color="#7e63c6"/><stop offset="0.82" stop-color="#654fa8"/><stop offset="1" stop-color="#5c489d"/></radialGradient><radialGradient id="radial-gradient-2" cx="21.25" cy="30.59" r="26.17" gradientTransform="matrix(1, 0, 0, -1, 0, 37.69)" gradientUnits="userSpaceOnUse"><stop offset="0" stop-color="#e7bd78"/><stop offset="1" stop-color="#9f7349"/></radialGradient></defs><title>icon-category-bank</title><g id="Layer_2" data-name="Layer 2"><g id="Слой_1" data-name="Слой 1"><path class="cls-1" d="M40.88,34.18H4.63c-.55,0-3.49,1.57-4,2.75a1.35,1.35,0,0,0,1,1.5H43.88a1.35,1.35,0,0,0,1-1.5C44.37,35.74,41.43,34.18,40.88,34.18Z"/><path class="cls-2" d="M41.66,32h-2s0-.06,0-.09L39,15.81s0-.08,0-.13h1a1,1,0,0,0,1-1v-.5a1,1,0,0,0-1-1H33.8a1,1,0,0,0-1,1v.5a1,1,0,0,0,1,1h.73s0,.08,0,.13L33.8,31.92s0,.06,0,.09h-8s0-.06,0-.09L25.2,15.81s0-.08,0-.13h1a1,1,0,0,0,1-1v-.5a1,1,0,0,0-1-1H20a1,1,0,0,0-1,1v.5a1,1,0,0,0,1,1h.73s0,.08,0,.13L20,31.92S20,32,20,32H12s0-.06,0-.09l-.67-16.11s0-.08,0-.13h1a1,1,0,0,0,1-1v-.5a1,1,0,0,0-1-1H6.18a1,1,0,0,0-1,1v.5a1,1,0,0,0,1,1h.73s0,.08,0,.13L6.18,31.92s0,.06,0,.09H4.49a1,1,0,0,0-1,1v.83a1,1,0,0,0,1,1H41.66a1,1,0,0,0,1-1V33A1,1,0,0,0,41.66,32Z"/><path class="cls-3" d="M20,15.68h6.17a1,1,0,0,0,1-1v-.5a1,1,0,0,0-1-1H20a1,1,0,0,0-1,1v.5A1,1,0,0,0,20,15.68Z"/><path class="cls-3" d="M33.8,15.68H40a1,1,0,0,0,1-1v-.5a1,1,0,0,0-1-1H33.8a1,1,0,0,0-1,1v.5A1,1,0,0,0,33.8,15.68Z"/><path class="cls-3" d="M6.18,15.68h6.17a1,1,0,0,0,1-1v-.5a1,1,0,0,0-1-1H6.18a1,1,0,0,0-1,1v.5A1,1,0,0,0,6.18,15.68Z"/><path class="cls-3" d="M41.66,32h-2s0-.06,0-.09l0-.49H33.83l0,.49s0,.06,0,.09h-8s0-.06,0-.09l0-.49H20l0,.49S20,32,20,32H12s0-.06,0-.09l0-.49H6.2l0,.49s0,.06,0,.09H4.49a1,1,0,0,0-1,1v.83a1,1,0,0,0,1,1H41.66a1,1,0,0,0,1-1V33A1,1,0,0,0,41.66,32Z"/><path class="cls-1" d="M2.09,14.11C1.09,13.93-.71,12.72.29,11L21.47.34a1.17,1.17,0,0,1,1.66,0L44.17,11c1.25,1.13-.42,3.13-1.5,3.14Z"/></g></g></svg>