<svg xmlns="http://www.w3.org/2000/svg" xmlns:xlink="http://www.w3.org/1999/xlink" viewBox="0 0 40.83 41.21"><defs><style>.cls-1{fill:url(#radial-gradient);}.cls-2{fill:url(#radial-gradient-2);}.cls-3{fill:url(#radial-gradient-3);}</style><radialGradient id="radial-gradient" cx="16.38" cy="38.29" r="50.48" gradientTransform="matrix(1, 0, 0, -1, 0, 41)" gradientUnits="userSpaceOnUse"><stop offset="0" stop-color="#ae88ff"/><stop offset="0.08" stop-color="#a682f5"/><stop offset="0.5" stop-color="#7e63c6"/><stop offset="0.82" stop-color="#654fa8"/><stop offset="1" stop-color="#5c489d"/></radialGradient><radialGradient id="radial-gradient-2" cx="9.5" cy="10.87" r="3.75" gradientTransform="matrix(1, 0, 0, -1, 0, 41)" gradientUnits="userSpaceOnUse"><stop offset="0" stop-color="#e7bd78"/><stop offset="1" stop-color="#9f7349"/></radialGradient><radialGradient id="radial-gradient-3" cx="17.08" cy="27.29" r="23.09" xlink:href="#radial-gradient-2"/></defs><title>icon-category-finance</title><g id="Layer_2" data-name="Layer 2"><g id="Слой_1" data-name="Слой 1"><path class="cls-1" d="M30.33,1H17.86a1.5,1.5,0,0,0-1.4-1H15.38A1.5,1.5,0,0,0,14,1H1.5A1.5,1.5,0,0,0,0,2.48V38.06a1.5,1.5,0,0,0,1.5,1.5H18c0-.12,0-.23,0-.35V17.54a4,4,0,0,1,4-4h9.83V2.48A1.5,1.5,0,0,0,30.33,1ZM14.88,1.5a.5.5,0,0,1,.5-.5h1.08a.5.5,0,0,1,.5.5V3.67a.5.5,0,0,1-.5.5H15.38a.5.5,0,0,1-.5-.5ZM9.5,35.23a5.1,5.1,0,1,1,5.1-5.1A5.1,5.1,0,0,1,9.5,35.23ZM15,21H4.07a.68.68,0,1,1,0-1.35H5.65V17.53a.68.68,0,1,1,1.35,0v2.09H8.75V14.43a.68.68,0,0,1,1.35,0v5.19H12V16.46a.68.68,0,1,1,1.35,0v3.16H15A.68.68,0,1,1,15,21ZM22.67,6.4a.5.5,0,0,1-.5.5H9.67a.5.5,0,0,1-.5-.5V2h4.71V3.67a1.5,1.5,0,0,0,1.5,1.5h1.08A1.5,1.5,0,0,0,18,3.67V2h4.71Z"/><path class="cls-2" d="M9.42,30.1V26.39a3.75,3.75,0,1,0,3.83,3.74v0Z"/><path class="cls-3" d="M38.83,15.54H22a2,2,0,0,0-2,2V39.21a2,2,0,0,0,2,2H38.83a2,2,0,0,0,2-2V17.54A2,2,0,0,0,38.83,15.54ZM25.92,36.71a1,1,0,0,1-1,1h-1a1,1,0,0,1-1-1V36.5a1,1,0,0,1,1-1h1a1,1,0,0,1,1,1Zm0-4.58a1,1,0,0,1-1,1h-1a1,1,0,0,1-1-1v-.21a1,1,0,0,1,1-1h1a1,1,0,0,1,1,1Zm0-4.58a1,1,0,0,1-1,1h-1a1,1,0,0,1-1-1v-.21a1,1,0,0,1,1-1h1a1,1,0,0,1,1,1Zm5.73,9.17a1,1,0,0,1-1,1h-1a1,1,0,0,1-1-1V36.5a1,1,0,0,1,1-1h1a1,1,0,0,1,1,1Zm0-4.58a1,1,0,0,1-1,1h-1a1,1,0,0,1-1-1v-.21a1,1,0,0,1,1-1h1a1,1,0,0,1,1,1Zm0-4.58a1,1,0,0,1-1,1h-1a1,1,0,0,1-1-1v-.21a1,1,0,0,1,1-1h1a1,1,0,0,1,1,1Zm5.73,9.17a1,1,0,0,1-1,1h-1a1,1,0,0,1-1-1V36.5a1,1,0,0,1,1-1h1a1,1,0,0,1,1,1Zm0-4.58a1,1,0,0,1-1,1h-1a1,1,0,0,1-1-1v-.21a1,1,0,0,1,1-1h1a1,1,0,0,1,1,1Zm0-4.58a1,1,0,0,1-1,1h-1a1,1,0,0,1-1-1v-.21a1,1,0,0,1,1-1h1a1,1,0,0,1,1,1Zm0-4.17a1,1,0,0,1-1,1H23.87a1,1,0,0,1-1-1V19.71a1,1,0,0,1,1-1h12.5a1,1,0,0,1,1,1Z"/></g></g></svg>