<!-- Generated by IcoMoon.io -->
<svg version="1.1" xmlns="http://www.w3.org/2000/svg" width="1024" height="1024" viewBox="0 0 1024 1024">
<title></title>
<g id="icomoon-ignore">
</g>
<path d="M964.293 268.203h-904.586c-32.959 0-59.707-26.748-59.707-59.707s26.748-59.707 59.707-59.707h904.586c32.959 0 59.707 26.748 59.707 59.707s-26.748 59.707-59.707 59.707z"></path>
<path d="M964.293 571.707h-904.586c-32.959 0-59.707-26.748-59.707-59.707s26.748-59.707 59.707-59.707h904.586c32.959 0 59.707 26.748 59.707 59.707s-26.748 59.707-59.707 59.707z"></path>
<path d="M964.293 875.21h-904.586c-32.959 0-59.707-26.748-59.707-59.707s26.748-59.707 59.707-59.707h904.586c32.959 0 59.707 26.748 59.707 59.707s-26.748 59.707-59.707 59.707z"></path>
</svg>
