<svg xmlns="http://www.w3.org/2000/svg" viewBox="0 0 103.63 103.63"><defs><style>.cls-1{fill:#eeded4;}</style></defs><title>icon-expertise</title><g id="Layer_2" data-name="Layer 2"><g id="Слой_1" data-name="Слой 1"><path class="cls-1" d="M51.81,103.63A51.81,51.81,0,1,1,90,16.84a4,4,0,0,1,.61.87l.45.88a4,4,0,0,1-.37,4.25L56.19,68.29a4,4,0,0,1-3.08,1.58,4,4,0,0,1-3.16-1.42L27.07,41.33a4,4,0,1,1,6.11-5.16L52.84,59.48l29.62-39A43.81,43.81,0,1,0,95.63,51.81a4,4,0,0,1,8,0A51.87,51.87,0,0,1,51.81,103.63Z"/></g></g></svg>