<?xml version="1.0" encoding="utf-8"?>
<!-- Generator: Adobe Illustrator 15.1.0, SVG Export Plug-In . SVG Version: 6.00 Build 0)  -->
<!DOCTYPE svg PUBLIC "-//W3C//DTD SVG 1.1//EN" "http://www.w3.org/Graphics/SVG/1.1/DTD/svg11.dtd">
<svg version="1.1" id="Слой_1" xmlns="http://www.w3.org/2000/svg" xmlns:xlink="http://www.w3.org/1999/xlink" x="0px" y="0px"
	 width="25.251px" height="14.292px" viewBox="0 0 25.251 14.292" enable-background="new 0 0 25.251 14.292" xml:space="preserve">
<g>
	<path fill="#D2A277" d="M7.167,14.083c-0.396,0-0.775-0.156-1.057-0.436L0.443,8.022c-0.588-0.583-0.592-1.533-0.008-2.121
		c0.583-0.589,1.533-0.591,2.121-0.008l4.575,4.541l9.403-9.964c0.568-0.603,1.517-0.63,2.12-0.062
		c0.603,0.568,0.63,1.518,0.062,2.12L8.258,13.612c-0.277,0.294-0.662,0.464-1.066,0.471C7.183,14.083,7.175,14.083,7.167,14.083z"
		/>
</g>
<g>
	<path fill="#D2A277" d="M13.292,14.292c-0.369,0-0.739-0.136-1.029-0.409c-0.603-0.568-0.63-1.518-0.062-2.12L22.661,0.679
		c0.568-0.603,1.518-0.63,2.12-0.062s0.63,1.518,0.062,2.12L14.383,13.821C14.088,14.134,13.691,14.292,13.292,14.292z"/>
</g>
</svg>
