<!-- Generated by IcoMoon.io -->
<svg version="1.1" xmlns="http://www.w3.org/2000/svg" width="1024" height="1024" viewBox="0 0 1024 1024">
<title></title>
<g id="icomoon-ignore">
</g>
<path d="M873.060 148.789c-95.781-95.9-223.184-148.749-358.91-148.789-279.657 0-507.34 227.604-507.42 507.38-0.040 89.409 23.298 176.747 67.744 253.65l-72.005 262.97 268.983-70.531c74.116 40.463 157.591 61.77 242.459 61.77h0.199c279.696 0 507.34-227.644 507.42-507.42 0.119-135.607-52.61-263.089-148.47-359.029zM514.15 929.533h-0.159c-75.669-0.040-149.904-20.391-214.661-58.823l-15.413-9.12-159.622 41.897 42.614-155.639-10.036-15.93c-42.215-67.186-64.518-144.806-64.478-224.458 0.080-232.582 189.292-421.755 421.954-421.755 112.627 0.040 218.524 43.968 298.175 123.619 79.612 79.731 123.42 185.708 123.42 298.375-0.119 232.622-189.292 421.834-421.795 421.834zM745.498 613.635c-12.665-6.372-75.032-37.038-86.661-41.259s-20.072-6.332-28.515 6.332c-8.483 12.704-32.737 41.259-40.144 49.742-7.447 8.443-14.815 9.518-27.48 3.146-12.665-6.332-53.526-19.714-101.954-62.925-37.715-33.613-63.164-75.151-70.571-87.816-7.408-12.704-0.040-18.917 5.576-25.847 13.74-17.045 27.44-34.927 31.701-43.37 4.222-8.483 2.111-15.851-1.075-22.223-3.146-6.372-28.475-68.779-39.069-94.148-10.275-24.732-20.709-21.386-28.515-21.785-7.408-0.358-15.851-0.438-24.294-0.438s-22.183 3.146-33.812 15.851c-11.629 12.704-44.326 43.41-44.326 105.777 0 62.407 45.441 122.703 51.773 131.186 6.332 8.443 89.409 136.523 216.572 191.442 30.268 13.063 53.884 20.869 72.284 26.723 30.387 9.638 58.026 8.284 79.851 5.018 24.334-3.664 75.032-30.706 85.586-60.296 10.554-29.63 10.554-54.999 7.368-60.296-3.146-5.297-11.629-8.483-24.294-14.815z"></path>
</svg>
