<?xml version="1.0" encoding="utf-8"?>
<!-- Generator: Adobe Illustrator 15.1.0, SVG Export Plug-In . SVG Version: 6.00 Build 0)  -->
<!DOCTYPE svg PUBLIC "-//W3C//DTD SVG 1.1//EN" "http://www.w3.org/Graphics/SVG/1.1/DTD/svg11.dtd">
<svg version="1.1" id="Слой_1" xmlns="http://www.w3.org/2000/svg" xmlns:xlink="http://www.w3.org/1999/xlink" x="0px" y="0px"
	 width="97.667px" height="92.167px" viewBox="0 0 97.667 92.167" enable-background="new 0 0 97.667 92.167" xml:space="preserve">
<g>
	<path fill="#C3C3C3" d="M45.25,9h-7.083V1.917C38.167,0.858,37.309,0,36.25,0c-1.058,0-1.917,0.858-1.917,1.917V9H27.25
		c-1.059,0-1.917,0.858-1.917,1.917c0,1.059,0.858,1.917,1.917,1.917h7.083v7.083c0,1.059,0.858,1.917,1.917,1.917
		c1.059,0,1.917-0.858,1.917-1.917v-7.083h7.083c1.059,0,1.917-0.858,1.917-1.917C47.167,9.858,46.309,9,45.25,9z"/>
</g>
<g>
	<path fill="#C3C3C3" d="M19.917,79.333h-7.083V72.25c0-1.059-0.858-1.916-1.917-1.916C9.858,70.333,9,71.191,9,72.25v7.084H1.917
		C0.858,79.333,0,80.192,0,81.25c0,1.059,0.858,1.918,1.917,1.918H9v7.082c0,1.059,0.858,1.918,1.917,1.918
		c1.059,0,1.917-0.859,1.917-1.918v-7.082h7.083c1.059,0,1.917-0.859,1.917-1.918C21.833,80.192,20.976,79.333,19.917,79.333z"/>
</g>
<g>
	<path fill="#C3C3C3" d="M95.751,62.167h-7.084v-7.084c0-1.059-0.858-1.916-1.917-1.916c-1.058,0-1.917,0.857-1.917,1.916v7.084
		h-7.082c-1.059,0-1.918,0.858-1.918,1.916c0,1.059,0.859,1.918,1.918,1.918h7.082v7.082c0,1.059,0.859,1.918,1.917,1.918
		c1.059,0,1.917-0.859,1.917-1.918v-7.082h7.084c1.059,0,1.916-0.859,1.916-1.918C97.667,63.026,96.81,62.167,95.751,62.167z"/>
</g>
<g>
	<path fill="#574793" d="M31.667,63.167c-0.997,0-1.993-0.37-2.768-1.112l-16-15.333c-1.595-1.529-1.649-4.061-0.121-5.656
		c1.529-1.595,4.061-1.648,5.656-0.121l13.188,12.638l28.064-27.76c1.572-1.553,4.104-1.54,5.657,0.031
		c1.554,1.57,1.54,4.103-0.03,5.657L34.48,62.01C33.702,62.781,32.685,63.167,31.667,63.167z"/>
</g>
<g>
	<path fill="#574793" d="M48.833,63c-1.031,0-2.062-0.396-2.844-1.188c-1.554-1.57-1.54-4.103,0.031-5.656l30.833-30.499
		c1.57-1.553,4.104-1.54,5.656,0.031c1.554,1.571,1.54,4.103-0.031,5.657L51.646,61.843C50.866,62.615,49.85,63,48.833,63z"/>
</g>
</svg>
