<!-- Generated by IcoMoon.io -->
<svg version="1.1" xmlns="http://www.w3.org/2000/svg" width="1024" height="1024" viewBox="0 0 1024 1024">
<title></title>
<g id="icomoon-ignore">
</g>
<path d="M957.935 148.645c-27.351 0-49.548 22.165-49.548 49.548v619.355c0 27.351 22.198 49.548 49.548 49.548s49.548-22.198 49.548-49.548v-619.355c0-27.384-22.198-49.548-49.548-49.548z"></path>
<path d="M472.758 225.115c-19.324-19.357-50.705-19.423-70.061-0.066-19.357 19.324-19.39 50.705-0.066 70.061l166.945 167.341h-520.027c-27.384 0-49.548 22.165-49.548 49.548 0 27.351 22.165 49.548 49.548 49.548h517.219l-159.876 158.918c-19.423 19.291-19.522 50.671-0.231 70.094 9.678 9.745 22.429 14.6 35.146 14.6 12.618 0 25.27-4.823 34.915-14.402l246.222-244.637c9.315-9.282 14.567-21.9 14.6-35.080 0.033-13.147-5.186-25.765-14.468-35.113l-250.318-250.814z"></path>
</svg>
