<!-- Generated by IcoMoon.io -->
<svg version="1.1" xmlns="http://www.w3.org/2000/svg" width="1024" height="1024" viewBox="0 0 1024 1024">
<title></title>
<g id="icomoon-ignore">
</g>
<path d="M268.203 59.707v904.586c0 32.959-26.748 59.707-59.707 59.707s-59.707-26.748-59.707-59.707v-904.586c0-32.959 26.748-59.707 59.707-59.707s59.707 26.748 59.707 59.707z"></path>
<path d="M571.707 59.707v904.586c0 32.959-26.748 59.707-59.707 59.707s-59.707-26.748-59.707-59.707v-904.586c0-32.959 26.748-59.707 59.707-59.707s59.707 26.748 59.707 59.707z"></path>
<path d="M875.21 59.707v904.586c0 32.959-26.748 59.707-59.707 59.707s-59.707-26.748-59.707-59.707v-904.586c0-32.959 26.748-59.707 59.707-59.707s59.707 26.748 59.707 59.707z"></path>
</svg>
