<svg xmlns="http://www.w3.org/2000/svg" viewBox="0 0 101.33 101.33"><defs><style>.cls-1{fill:#eeded4;}</style></defs><title>icon-services</title><g id="Layer_2" data-name="Layer 2"><g id="Слой_1" data-name="Слой 1"><path class="cls-1" d="M53.75,5a4,4,0,0,1,4,4v3a5.78,5.78,0,0,0,3.82,5.18l5,2.07a5.15,5.15,0,0,0,2.42.57A5.65,5.65,0,0,0,73,18.35l2.16-2.16a4,4,0,0,1,5.66,0l4.36,4.36a4,4,0,0,1,0,5.66L83,28.37A5.74,5.74,0,0,0,82,34.73l2.07,5a5.79,5.79,0,0,0,5.18,3.82h3a4,4,0,0,1,4,4v6.17a4,4,0,0,1-4,4h-3a5.79,5.79,0,0,0-5.18,3.82l-2.07,5A5.74,5.74,0,0,0,83,73l2.16,2.16a4,4,0,0,1,0,5.66l-4.36,4.36a4,4,0,0,1-5.66,0L73,83A5.65,5.65,0,0,0,69,81.47a5.16,5.16,0,0,0-2.42.57l-5,2.07a5.78,5.78,0,0,0-3.82,5.18v3a4,4,0,0,1-4,4H47.58a4,4,0,0,1-4-4v-3a5.79,5.79,0,0,0-3.82-5.18l-5-2.07a5.14,5.14,0,0,0-2.42-.57A5.65,5.65,0,0,0,28.37,83l-2.16,2.16a4,4,0,0,1-5.66,0l-4.36-4.36a4,4,0,0,1,0-5.66L18.35,73a5.73,5.73,0,0,0,.94-6.35l-2.07-5A5.78,5.78,0,0,0,12,57.75H9a4,4,0,0,1-4-4V47.59a4,4,0,0,1,4-4h3a5.78,5.78,0,0,0,5.18-3.82l2.07-5a5.74,5.74,0,0,0-.94-6.35l-2.16-2.16a4,4,0,0,1,0-5.66l4.36-4.36a4,4,0,0,1,5.66,0l2.16,2.16a5.65,5.65,0,0,0,3.93,1.51,5.17,5.17,0,0,0,2.42-.57l5-2.07A5.78,5.78,0,0,0,43.58,12V9a4,4,0,0,1,4-4h6.17m0-5H47.58a9,9,0,0,0-9,9v3a1.16,1.16,0,0,1-.36.49l-.36.13-5,2.07-.4.19H32.3a1.09,1.09,0,0,1-.44-.09l-2.11-2.11a9,9,0,0,0-12.73,0L12.66,17a9,9,0,0,0,0,12.73l2.11,2.11a1.12,1.12,0,0,1,.08.56c-.07.13-.13.27-.19.4l-2.07,5c0,.12-.09.24-.13.36a1.16,1.16,0,0,1-.49.36H9a9,9,0,0,0-9,9v6.17a9,9,0,0,0,9,9h3a1.16,1.16,0,0,1,.49.36c0,.12.08.24.13.36l2.06,5c.06.14.12.27.19.4a1.12,1.12,0,0,1-.08.56l-2.11,2.11a9,9,0,0,0,0,12.73L17,88.67a9,9,0,0,0,12.73,0l2.11-2.11a1.09,1.09,0,0,1,.44-.09h.12l.4.19,5,2.07.36.13a1.16,1.16,0,0,1,.36.49v3a9,9,0,0,0,9,9h6.17a9,9,0,0,0,9-9v-3a1.18,1.18,0,0,1,.36-.49l.36-.13,5-2.07.4-.19H69a1.08,1.08,0,0,1,.44.09l2.11,2.11a9,9,0,0,0,12.73,0l4.36-4.36a9,9,0,0,0,0-12.73l-2.11-2.11a1.11,1.11,0,0,1-.08-.56c.07-.13.13-.27.19-.4l2.07-5c0-.12.09-.24.13-.36a1.16,1.16,0,0,1,.49-.36h3a9,9,0,0,0,9-9V47.58a9,9,0,0,0-9-9h-3a1.17,1.17,0,0,1-.49-.36c0-.12-.08-.24-.13-.36l-2.07-5c-.06-.14-.12-.27-.19-.4a1.12,1.12,0,0,1,.08-.56l2.11-2.11a9,9,0,0,0,0-12.73l-4.36-4.36a9,9,0,0,0-12.73,0l-2.11,2.11a1.08,1.08,0,0,1-.44.09h-.12l-.4-.19-5-2.07-.36-.13a1.15,1.15,0,0,1-.36-.49V9a9,9,0,0,0-9-9Z"/><path class="cls-1" d="M46.11,36.66a2.84,2.84,0,0,1,1.64.66L63.5,49.08a2.81,2.81,0,0,1,0,4.77L47.76,65.48a2.85,2.85,0,0,1-1.63.65c-.94,0-1.58-.81-1.58-2.27V38.92c0-1.46.63-2.26,1.57-2.26m0-5h0c-3.26,0-6.57,2.5-6.57,7.26V63.86c0,4.77,3.31,7.27,6.58,7.27a7.77,7.77,0,0,0,4.61-1.63L66.46,57.87a7.8,7.8,0,0,0,0-12.8L50.74,33.31a7.76,7.76,0,0,0-4.63-1.65Z"/></g></g></svg>