<svg xmlns="http://www.w3.org/2000/svg" xmlns:xlink="http://www.w3.org/1999/xlink" viewBox="0 0 35.17 33.95"><defs><style>.cls-1{fill:url(#radial-gradient);}.cls-2{fill:url(#radial-gradient-2);}.cls-3{fill:url(#radial-gradient-10);}</style><radialGradient id="radial-gradient" cx="17.39" cy="19.72" r="23.68" gradientTransform="matrix(1, 0, 0, -1, 0, 31.56)" gradientUnits="userSpaceOnUse"><stop offset="0" stop-color="#e7bd78"/><stop offset="1" stop-color="#9f7349"/></radialGradient><radialGradient id="radial-gradient-2" cx="17.39" cy="20.41" r="23.68" xlink:href="#radial-gradient"/><radialGradient id="radial-gradient-10" cx="18.41" cy="25.45" r="28.85" gradientTransform="matrix(1, 0, 0, -1, 0, 31.56)" gradientUnits="userSpaceOnUse"><stop offset="0" stop-color="#ae88ff"/><stop offset="0.15" stop-color="#a480f3"/><stop offset="0.41" stop-color="#896bd3"/><stop offset="0.5" stop-color="#8064c8"/><stop offset="0.51" stop-color="#7f63c7"/><stop offset="0.69" stop-color="#6c54b0"/><stop offset="0.85" stop-color="#604ba2"/><stop offset="1" stop-color="#5c489d"/></radialGradient></defs><title>icon-service-people</title><g id="Layer_2" data-name="Layer 2"><g id="Слой_1" data-name="Слой 1"><path class="cls-1" d="M19.67,10.83a.8.8,0,0,1-.8.8H18.1a.8.8,0,0,1-.8-.8h0a.8.8,0,0,1,.8-.8h.78a.8.8,0,0,1,.8.8Z"/><path class="cls-2" d="M15.9,19.57s0,0,0,0v10a1,1,0,1,0,2,0v-10s0,0,0,0Z"/><path class="cls-2" d="M18.88,19.57s0,0,0,0v10a1,1,0,0,0,2,0v-10s0,0,0,0Z"/><path class="cls-1" d="M10.26,7.24a.8.8,0,0,1-.8.8H8.68a.8.8,0,0,1-.8-.8h0a.8.8,0,0,1,.8-.8h.78a.8.8,0,0,1,.8.8Z"/><path class="cls-2" d="M6.48,16s0,0,0,0v10a1,1,0,1,0,2,0V16s0,0,0,0Z"/><path class="cls-2" d="M9.46,16s0,0,0,0v10a1,1,0,1,0,2,0V16s0,0,0,0Z"/><path class="cls-1" d="M29.34,7.24a.8.8,0,0,1-.8.8h-.78a.8.8,0,0,1-.8-.8h0a.8.8,0,0,1,.8-.8h.78a.8.8,0,0,1,.8.8Z"/><path class="cls-2" d="M25.57,16s0,0,0,0v10a1,1,0,1,0,2,0V16s0,0,0,0Z"/><path class="cls-2" d="M28.55,16s0,0,0,0v10a1,1,0,1,0,2,0V16s0,0,0,0Z"/><circle class="cls-3" cx="18.52" cy="6.4" r="2.81"/><path class="cls-3" d="M20,11.11v0c0,.81-.66,1-1.47,1S17,12,17,11.16v0h-.84a3,3,0,0,0-3,3v6.42a.74.74,0,0,0,1.48,0v-.29h0V15.11a.67.67,0,1,1,1.33,0v3.45h5V15.11a.67.67,0,1,1,1.33,0v5.13h0v.29a.74.74,0,0,0,1.48,0V14.11a3,3,0,0,0-3-3Z"/><circle class="cls-3" cx="9.1" cy="2.81" r="2.81"/><circle class="cls-3" cx="28.18" cy="2.81" r="2.81"/><path class="cls-3" d="M31.5,24.29v1.78A2,2,0,0,1,28,27.36a2,2,0,0,1-3.47-1.29V22.44c-.88-.13-1.79-.23-2.73-.31v7.52a2,2,0,0,1-3.47,1.29,2,2,0,0,1-3.47-1.29V22c-.85,0-1.68.1-2.48.19v3.86a2,2,0,0,1-3.47,1.29,2,2,0,0,1-3.47-1.29V23.6C2.11,24.69,0,26.24,0,27.95c0,3.31,7.87,6,17.58,6s17.58-2.69,17.58-6C35.16,26.57,33.79,25.3,31.5,24.29Z"/><path class="cls-3" d="M24.39,11.27a.67.67,0,0,1,1.28.26V15h5V11.53a.67.67,0,1,1,1.33,0v5.13h0v.29a.74.74,0,0,0,1.48,0V10.53a3,3,0,0,0-3-3h-.84v0c0,.81-.66,1-1.47,1s-1.47-.19-1.47-1v0h-.84A3,3,0,0,0,23,9.66,5,5,0,0,1,24.39,11.27Z"/><path class="cls-3" d="M4.51,17.66a.72.72,0,0,0,.74-.71v-.29h0V11.53a.67.67,0,1,1,1.33,0V15h5V11.53a.67.67,0,1,1,1.33,0v.1A5,5,0,0,1,14.3,9.82a3,3,0,0,0-2.91-2.29h-.84v0c0,.81-.66,1-1.47,1s-1.47-.19-1.47-1v0H6.77a3,3,0,0,0-3,3v6.42A.72.72,0,0,0,4.51,17.66Z"/></g></g></svg>