<svg xmlns="http://www.w3.org/2000/svg" xmlns:xlink="http://www.w3.org/1999/xlink" viewBox="0 0 37.65 21.97"><defs><style>.cls-1{fill:url(#linear-gradient);}.cls-2{fill:url(#linear-gradient-2);}.cls-3{fill:url(#linear-gradient-3);}</style><linearGradient id="linear-gradient" y1="12.06" x2="32.03" y2="12.06" gradientTransform="matrix(1, 0, 0, -1, 0, 21)" gradientUnits="userSpaceOnUse"><stop offset="0" stop-color="#9f7349"/><stop offset="0.55" stop-color="#e7bd78"/><stop offset="0.66" stop-color="#e3b976"/><stop offset="0.76" stop-color="#d8ae6e"/><stop offset="0.86" stop-color="#c59a62"/><stop offset="0.96" stop-color="#ab7f51"/><stop offset="1" stop-color="#9f7349"/></linearGradient><linearGradient id="linear-gradient-2" x1="20.81" y1="13.75" x2="31.18" y2="1.25" gradientTransform="matrix(1, 0, 0, -1, 0, 21)" gradientUnits="userSpaceOnUse"><stop offset="0.01" stop-color="#8c82d6"/><stop offset="1" stop-color="#5c489d"/></linearGradient><linearGradient id="linear-gradient-3" x1="25.24" y1="17.43" x2="35.62" y2="4.93" xlink:href="#linear-gradient-2"/></defs><title>icon-service-speedometer</title><g id="Layer_2" data-name="Layer 2"><g id="Слой_1" data-name="Слой 1"><path class="cls-1" d="M27.72,9.4l4.31-4A18.83,18.83,0,0,0,0,17.88H5.88A13,13,0,0,1,27.72,9.4Z"/><path class="cls-2" d="M33.65,4.67a1,1,0,0,0,0-1.41l-.18-.18a1,1,0,0,0-1.42,0L20.56,13.86a1,1,0,0,0-.24.44,4,4,0,1,0,2.1,2.1,1,1,0,0,0,.44-.24ZM20.1,19.32a1.91,1.91,0,1,1,0-2.7A1.91,1.91,0,0,1,20.1,19.32Z"/><path class="cls-3" d="M33.92,7.59,29.85,12a13,13,0,0,1,1.93,5.87h5.88A18.8,18.8,0,0,0,33.92,7.59Z"/></g></g></svg>