<svg xmlns="http://www.w3.org/2000/svg" xmlns:xlink="http://www.w3.org/1999/xlink" viewBox="0 0 35.84 28.09"><defs><style>.cls-1{fill:url(#radial-gradient);}.cls-2{fill:url(#radial-gradient-2);}</style><radialGradient id="radial-gradient" cx="19.05" cy="22.64" r="16.89" gradientTransform="matrix(1, 0, 0, -1, 0, 31.58)" gradientUnits="userSpaceOnUse"><stop offset="0" stop-color="#fdd487"/><stop offset="1" stop-color="#9f7349"/></radialGradient><radialGradient id="radial-gradient-2" cx="3.79" cy="24.52" r="27" gradientTransform="matrix(1, 0, 0, -1, 0, 31.58)" gradientUnits="userSpaceOnUse"><stop offset="0" stop-color="#ae88ff"/><stop offset="0.08" stop-color="#a682f5"/><stop offset="0.5" stop-color="#7e63c6"/><stop offset="0.82" stop-color="#654fa8"/><stop offset="1" stop-color="#5c489d"/></radialGradient></defs><title>icon-service-messages</title><g id="Layer_2" data-name="Layer 2"><g id="Слой_1" data-name="Слой 1"><path class="cls-1" d="M35.84,12.46a12.47,12.47,0,1,0-5.42,10.28,9.77,9.77,0,0,1,3.77,1.51c.42.33.38.58.75.47s.11-.53.06-1a17,17,0,0,0-1.13-4.56A12.37,12.37,0,0,0,35.84,12.46Z"/><path class="cls-2" d="M16.51,25.17a9.93,9.93,0,0,1-10.57-.43l-.28-.19-.33.06a10.3,10.3,0,0,0-2.91,1,12.31,12.31,0,0,1,.8-3l.18-.4-.24-.37a9.95,9.95,0,0,1,7-15.23A14.34,14.34,0,0,1,11,5,11.55,11.55,0,0,0,1.61,22.39a17,17,0,0,0-.87,3.78l0,.2c-.05.35-.19,1.27.65,1.51a1.12,1.12,0,0,0,1.21-.38.91.91,0,0,1,.15-.15,7.25,7.25,0,0,1,2.61-1.09A11.53,11.53,0,0,0,18.24,26,14.19,14.19,0,0,1,16.51,25.17Z"/></g></g></svg>