<svg xmlns="http://www.w3.org/2000/svg" xmlns:xlink="http://www.w3.org/1999/xlink" viewBox="0 0 26.68 33.09"><defs><style>.cls-1{fill:url(#radial-gradient);}.cls-2{fill:url(#radial-gradient-2);}.cls-3{fill:url(#radial-gradient-3);}.cls-4{fill:url(#radial-gradient-4);}.cls-5{fill:url(#radial-gradient-5);}.cls-6{fill:url(#radial-gradient-6);}.cls-7{fill:url(#radial-gradient-7);}</style><radialGradient id="radial-gradient" cx="16.53" cy="10.77" r="18.07" gradientTransform="matrix(-0.4, 0.92, 1.45, 0.63, 2.18, -19.51)" gradientUnits="userSpaceOnUse"><stop offset="0" stop-color="#e7bd78"/><stop offset="1" stop-color="#9f7349"/></radialGradient><radialGradient id="radial-gradient-2" cx="16.53" cy="10.77" r="18.07" xlink:href="#radial-gradient"/><radialGradient id="radial-gradient-3" cx="-35.04" cy="23.04" r="18.07" gradientTransform="matrix(0.4, 0.92, -1.45, 0.63, 62.76, 20.62)" gradientUnits="userSpaceOnUse"><stop offset="0" stop-color="#ae88ff"/><stop offset="0.08" stop-color="#a682f5"/><stop offset="0.5" stop-color="#7e63c6"/><stop offset="0.82" stop-color="#654fa8"/><stop offset="1" stop-color="#5c489d"/></radialGradient><radialGradient id="radial-gradient-4" cx="14.2" cy="3.52" r="2.06" gradientTransform="matrix(-0.4, 0.92, 1.45, 0.63, 9.45, -5.58)" xlink:href="#radial-gradient"/><radialGradient id="radial-gradient-5" cx="16.53" cy="10.77" r="18.07" xlink:href="#radial-gradient"/><radialGradient id="radial-gradient-6" cx="23.19" cy="10.13" r="18.08" gradientTransform="matrix(-0.4, 0.92, 1.45, 0.63, 12.42, -24.58)" xlink:href="#radial-gradient-3"/><radialGradient id="radial-gradient-7" cx="-35.03" cy="23.04" r="18.07" xlink:href="#radial-gradient-3"/></defs><title>icon-service-sparring</title><g id="Layer_2" data-name="Layer 2"><g id="Слой_1" data-name="Слой 1"><circle class="cls-1" cx="8.72" cy="3.63" r="3.63"/><path class="cls-2" d="M3.34,22C3,21.92,3,23.33,3,23.33a52.49,52.49,0,0,1-2.5,5.92c-.67.92-.92,1.5.75,2.67s2.5-.08,2.5-.08L6.18,27C6.09,24.5,3.34,22,3.34,22Z"/><circle class="cls-3" cx="17.96" cy="4.13" r="3.62"/><path class="cls-4" d="M8,11.27v.88a1,1,0,0,0,1,1h.45a13.58,13.58,0,0,0-.56-2.78A1,1,0,0,0,8,11.27Z"/><path class="cls-5" d="M10.18,22.08a8.41,8.41,0,0,1-.58-4.5s0-.22,0-.58H15a1,1,0,0,0,1-1v-.92a1,1,0,0,0-1-1H12.2L9,14.11a2,2,0,0,1-2-2v-.88A2,2,0,0,1,8.49,9.38,1.83,1.83,0,0,0,6.76,8.25s-2.33-.67-3.33,4.08.08,7.83,1.33,9.5S8,25.58,8.09,27s.08,4,.08,4a2,2,0,0,0,2.17,1.58c1.83-.17,2.25-1.33,2.17-3.08S11.84,25.54,10.18,22.08Z"/><path class="cls-6" d="M18.58,27.71c.08-1.36,2.08-3.37,3.33-5s2.33-4.57,1.33-9.14c-.78-3.57-2.33-4.76-3-4.76a1.23,1.23,0,0,0-.3,0l-.63,0C16.57,8.85,9,10.31,9,10.31a1,1,0,0,0-1,1v.88a1,1,0,0,0,1,1L17.2,13c0,.35-.11,5.61-.11,5.61A7.81,7.81,0,0,1,16.5,23c-1.66,3.33-2.25,5.45-2.33,7.14s.33,2.81,2.17,3h.24a2,2,0,0,0,1.93-1.53S18.5,29.07,18.58,27.71Z"/><path class="cls-7" d="M23.33,22.5c.33-.08.33,1.33.33,1.33a52.3,52.3,0,0,0,2.5,5.92c.67.92.92,1.5-.75,2.67s-2.5-.08-2.5-.08L20.5,27.5C20.58,25,23.33,22.5,23.33,22.5Z"/></g></g></svg>