<svg xmlns="http://www.w3.org/2000/svg" xmlns:xlink="http://www.w3.org/1999/xlink" viewBox="0 0 33.85 31.5"><defs><style>.cls-1{fill:url(#radial-gradient);}.cls-2{fill:url(#radial-gradient-2);}.cls-3{fill:url(#radial-gradient-3);}.cls-4{fill:url(#radial-gradient-4);}.cls-5{fill:#fff;}</style><radialGradient id="radial-gradient" cx="18.53" cy="18.87" r="15.01" gradientTransform="matrix(1, 0, 0, -1.04, 0, 31.06)" gradientUnits="userSpaceOnUse"><stop offset="0" stop-color="#e7bd78"/><stop offset="1" stop-color="#9f7349"/></radialGradient><radialGradient id="radial-gradient-2" cx="26.62" cy="11.89" r="8.24" gradientTransform="matrix(1, 0, 0, -1, 0, 30.83)" gradientUnits="userSpaceOnUse"><stop offset="0.01" stop-color="#b1aac6"/><stop offset="0.09" stop-color="#a8a1bc"/><stop offset="0.5" stop-color="#79758d"/><stop offset="0.82" stop-color="#5d596f"/><stop offset="1" stop-color="#524f64"/></radialGradient><radialGradient id="radial-gradient-3" cx="8.72" cy="13.04" r="9.93" gradientTransform="matrix(1, 0, 0, -1, 0, 30.83)" gradientUnits="userSpaceOnUse"><stop offset="0.01" stop-color="#af8ec6"/><stop offset="0.09" stop-color="#a686bc"/><stop offset="0.5" stop-color="#79618d"/><stop offset="0.82" stop-color="#5d4a6f"/><stop offset="1" stop-color="#524164"/></radialGradient><radialGradient id="radial-gradient-4" cx="17.55" cy="15.34" r="14.97" gradientTransform="matrix(1, 0, 0, -1, 0, 30.83)" gradientUnits="userSpaceOnUse"><stop offset="0.01" stop-color="#ae88ff"/><stop offset="0.09" stop-color="#a682f5"/><stop offset="0.5" stop-color="#7e63c6"/><stop offset="0.82" stop-color="#654fa8"/><stop offset="1" stop-color="#5c489d"/></radialGradient></defs><title>icon-service-mountain</title><g id="Layer_2" data-name="Layer 2"><g id="Слой_1" data-name="Слой 1"><path class="cls-1" d="M27.45,0H18.28a1,1,0,0,0-1,1V13.92h.94V8h9.23a1,1,0,0,0,1-1V1A1,1,0,0,0,27.45,0Z"/><path class="cls-2" d="M33.85,27.75,28,18.52a1.7,1.7,0,0,0-2.4,0l-6.2,9.23Z"/><path class="cls-3" d="M17.43,28.42,10.37,17.28a2,2,0,0,0-2.89,0L0,28.42Z"/><path class="cls-4" d="M30.68,31.5,20,14.73a3.08,3.08,0,0,0-4.36,0L4.42,31.5Z"/><path class="cls-5" d="M13.2,20.31l3.25-4.52s1.52-2.21,3,.29,2.38,4.08,2.38,4.08-1.12-.48-.92.67-1.1-1.06-1.73-.46-1.71,4.17-1.79,2.25,0-4.63-1.37-3.1S11.91,22.1,13.2,20.31Z"/></g></g></svg>